<?xml version="1.0" encoding="utf-8"?>
<!-- Generator: Adobe Illustrator 26.1.0, SVG Export Plug-In . SVG Version: 6.00 Build 0)  -->
<svg version="1.1" id="Livello_1" xmlns="http://www.w3.org/2000/svg" xmlns:xlink="http://www.w3.org/1999/xlink" x="0px" y="0px"
	 viewBox="0 0 1024 1024" style="enable-background:new 0 0 1024 1024;" xml:space="preserve">
<style type="text/css">
	.st0{fill:#FFFFFF;}
	.st1{fill:#11967F;}
</style>
<g>
	<path class="st0" d="M789.6,1002H234.4C117.1,1002,22,906.9,22,789.6V234.4C22,117.1,117.1,22,234.4,22h555.3
		c117.3,0,212.4,95.1,212.4,212.4v555.3C1002,906.9,906.9,1002,789.6,1002z"/>
</g>
<g>
	<path class="st1" d="M207.2,210.3l116.4,49.6v506.3l-116.4,48.6V210.3z"/>
	<path class="st1" d="M816.8,813.7l-116.4-49.6V258.9l116.4-49.6V813.7z"/>
	<path class="st1" d="M373.3,744.9l115.4-48.6V501.9l-115.4-48.6V744.9z"/>
	<path class="st1" d="M651.7,280.1l-114.4,48.6v193.4l114.4,48.6V280.1z"/>
</g>
</svg>
